<svg xmlns="http://www.w3.org/2000/svg" width="2400" height="1350" viewBox="0 0 2400 1350">
<rect width="2400" height="1350" fill="#08111F"/>
<style>text{font-family:Segoe UI,Arial,sans-serif} .title{font-weight:750} .mono{font-family:Cascadia Mono,Consolas,monospace}</style>
<text x="120" y="105" font-size="28" fill="#4CC2FF" font-weight="700" text-anchor="start" class="">RUNTIME</text>
<text x="120" y="190" font-size="64" fill="#F6F8FB" font-weight="760" text-anchor="start" class="title">Task time on the same local machine</text>
<text x="120" y="250" font-size="32" fill="#A9B6C9" font-weight="400" text-anchor="start" class="">Markers at 1,800 seconds reached the frozen task budget</text>
<line x1="780.0" y1="315" x2="780.0" y2="1130" stroke="#29405E" stroke-width="2"/>
<text x="780.0" y="1180" font-size="23" fill="#A9B6C9" font-weight="600" text-anchor="middle" class="">0m</text>
<line x1="1256.6666666666667" y1="315" x2="1256.6666666666667" y2="1130" stroke="#29405E" stroke-width="2"/>
<text x="1256.6666666666667" y="1180" font-size="23" fill="#A9B6C9" font-weight="600" text-anchor="middle" class="">10m</text>
<line x1="1733.3333333333335" y1="315" x2="1733.3333333333335" y2="1130" stroke="#29405E" stroke-width="2"/>
<text x="1733.3333333333335" y="1180" font-size="23" fill="#A9B6C9" font-weight="600" text-anchor="middle" class="">20m</text>
<line x1="2210.0" y1="315" x2="2210.0" y2="1130" stroke="#29405E" stroke-width="2"/>
<text x="2210.0" y="1180" font-size="23" fill="#A9B6C9" font-weight="600" text-anchor="middle" class="">30m</text>
<text x="120" y="358" font-size="27" fill="#55B7FF" font-weight="800" text-anchor="start" class="">M01</text>
<text x="215" y="358" font-size="28" fill="#F6F8FB" font-weight="620" text-anchor="start" class="">GPT-OSS 20B</text>
<line x1="780" y1="326" x2="1501.8465222222221" y2="326" stroke="#55B7FF" stroke-width="8" stroke-linecap="round" opacity="0.7"/>
<circle cx="1501.8465222222221" cy="326" r="9" fill="#55B7FF"/>
<line x1="780" y1="352" x2="949.3159722222222" y2="352" stroke="#F7B955" stroke-width="8" stroke-linecap="round" opacity="0.7"/>
<circle cx="949.3159722222222" cy="352" r="9" fill="#F7B955"/>
<line x1="780" y1="378" x2="848.0743978200001" y2="378" stroke="#A78BFA" stroke-width="8" stroke-linecap="round" opacity="0.7"/>
<circle cx="848.0743978200001" cy="378" r="9" fill="#A78BFA"/>
<text x="120" y="470" font-size="27" fill="#55D6A8" font-weight="800" text-anchor="start" class="">M02</text>
<text x="215" y="470" font-size="28" fill="#F6F8FB" font-weight="620" text-anchor="start" class="">GLM-4.7-Flash</text>
<line x1="780" y1="438" x2="2210.0" y2="438" stroke="#55B7FF" stroke-width="8" stroke-linecap="round" opacity="0.7"/>
<circle cx="2210.0" cy="438" r="10" fill="#08111F" stroke="#F5A524" stroke-width="6"/>
<line x1="780" y1="464" x2="2210.0" y2="464" stroke="#F7B955" stroke-width="8" stroke-linecap="round" opacity="0.7"/>
<circle cx="2210.0" cy="464" r="10" fill="#08111F" stroke="#F5A524" stroke-width="6"/>
<line x1="780" y1="490" x2="1152.7546567983334" y2="490" stroke="#A78BFA" stroke-width="8" stroke-linecap="round" opacity="0.7"/>
<circle cx="1152.7546567983334" cy="490" r="9" fill="#A78BFA"/>
<text x="120" y="582" font-size="27" fill="#F7B955" font-weight="800" text-anchor="start" class="">M03</text>
<text x="215" y="582" font-size="28" fill="#F6F8FB" font-weight="620" text-anchor="start" class="">North Mini Code 1.0</text>
<line x1="780" y1="550" x2="1123.2794444444444" y2="550" stroke="#55B7FF" stroke-width="8" stroke-linecap="round" opacity="0.7"/>
<circle cx="1123.2794444444444" cy="550" r="9" fill="#55B7FF"/>
<line x1="780" y1="576" x2="1576.5250944444444" y2="576" stroke="#F7B955" stroke-width="8" stroke-linecap="round" opacity="0.7"/>
<circle cx="1576.5250944444444" cy="576" r="9" fill="#F7B955"/>
<line x1="780" y1="602" x2="2210.0" y2="602" stroke="#A78BFA" stroke-width="8" stroke-linecap="round" opacity="0.7"/>
<circle cx="2210.0" cy="602" r="10" fill="#08111F" stroke="#F5A524" stroke-width="6"/>
<text x="120" y="694" font-size="27" fill="#A78BFA" font-weight="800" text-anchor="start" class="">M04</text>
<text x="215" y="694" font-size="28" fill="#F6F8FB" font-weight="620" text-anchor="start" class="">Ornith 1.5 9B</text>
<line x1="780" y1="662" x2="2210.0" y2="662" stroke="#55B7FF" stroke-width="8" stroke-linecap="round" opacity="0.7"/>
<circle cx="2210.0" cy="662" r="10" fill="#08111F" stroke="#F5A524" stroke-width="6"/>
<line x1="780" y1="688" x2="2210.0" y2="688" stroke="#F7B955" stroke-width="8" stroke-linecap="round" opacity="0.7"/>
<circle cx="2210.0" cy="688" r="10" fill="#08111F" stroke="#F5A524" stroke-width="6"/>
<line x1="780" y1="714" x2="1987.2491706672222" y2="714" stroke="#A78BFA" stroke-width="8" stroke-linecap="round" opacity="0.7"/>
<circle cx="1987.2491706672222" cy="714" r="9" fill="#A78BFA"/>
<text x="120" y="806" font-size="27" fill="#F17BAA" font-weight="800" text-anchor="start" class="">M05</text>
<text x="215" y="806" font-size="28" fill="#F6F8FB" font-weight="620" text-anchor="start" class="">Laguna XS 2.1</text>
<line x1="780" y1="774" x2="2210.0" y2="774" stroke="#55B7FF" stroke-width="8" stroke-linecap="round" opacity="0.7"/>
<circle cx="2210.0" cy="774" r="10" fill="#08111F" stroke="#F5A524" stroke-width="6"/>
<line x1="780" y1="800" x2="1108.333561111111" y2="800" stroke="#F7B955" stroke-width="8" stroke-linecap="round" opacity="0.7"/>
<circle cx="1108.333561111111" cy="800" r="9" fill="#F7B955"/>
<line x1="780" y1="826" x2="1603.9920603994444" y2="826" stroke="#A78BFA" stroke-width="8" stroke-linecap="round" opacity="0.7"/>
<circle cx="1603.9920603994444" cy="826" r="9" fill="#A78BFA"/>
<text x="120" y="918" font-size="27" fill="#43D5E7" font-weight="800" text-anchor="start" class="">M06</text>
<text x="215" y="918" font-size="28" fill="#F6F8FB" font-weight="620" text-anchor="start" class="">Qwen3-Coder 30B</text>
<line x1="780" y1="886" x2="2210.0" y2="886" stroke="#55B7FF" stroke-width="8" stroke-linecap="round" opacity="0.7"/>
<circle cx="2210.0" cy="886" r="10" fill="#08111F" stroke="#F5A524" stroke-width="6"/>
<line x1="780" y1="912" x2="1916.5171277777777" y2="912" stroke="#F7B955" stroke-width="8" stroke-linecap="round" opacity="0.7"/>
<circle cx="1916.5171277777777" cy="912" r="9" fill="#F7B955"/>
<line x1="780" y1="938" x2="1666.493899561111" y2="938" stroke="#A78BFA" stroke-width="8" stroke-linecap="round" opacity="0.7"/>
<circle cx="1666.493899561111" cy="938" r="9" fill="#A78BFA"/>
<text x="120" y="1030" font-size="27" fill="#AAB5C5" font-weight="800" text-anchor="start" class="">M07</text>
<text x="215" y="1030" font-size="28" fill="#F6F8FB" font-weight="620" text-anchor="start" class="">IBM Granite 4.2 8B</text>
<line x1="780" y1="998" x2="2210.0" y2="998" stroke="#55B7FF" stroke-width="8" stroke-linecap="round" opacity="0.7"/>
<circle cx="2210.0" cy="998" r="10" fill="#08111F" stroke="#F5A524" stroke-width="6"/>
<line x1="780" y1="1024" x2="2210.0" y2="1024" stroke="#F7B955" stroke-width="8" stroke-linecap="round" opacity="0.7"/>
<circle cx="2210.0" cy="1024" r="10" fill="#08111F" stroke="#F5A524" stroke-width="6"/>
<line x1="780" y1="1050" x2="2210.0" y2="1050" stroke="#A78BFA" stroke-width="8" stroke-linecap="round" opacity="0.7"/>
<circle cx="2210.0" cy="1050" r="10" fill="#08111F" stroke="#F5A524" stroke-width="6"/>
<circle cx="1150" cy="1240" r="9" fill="#55B7FF"/>
<text x="1170" y="1248" font-size="24" fill="#F6F8FB" font-weight="650" text-anchor="start" class="">C08</text>
<circle cx="1410" cy="1240" r="9" fill="#F7B955"/>
<text x="1430" y="1248" font-size="24" fill="#F6F8FB" font-weight="650" text-anchor="start" class="">C09</text>
<circle cx="1670" cy="1240" r="9" fill="#A78BFA"/>
<text x="1690" y="1248" font-size="24" fill="#F6F8FB" font-weight="650" text-anchor="start" class="">C10</text>
<circle cx="1940" cy="1240" r="10" fill="#08111F" stroke="#F5A524" stroke-width="5"/>
<text x="1965" y="1248" font-size="24" fill="#F6F8FB" font-weight="650" text-anchor="start" class="">timeout</text>
<line x1="120" y1="1260" x2="2280" y2="1260" stroke="#263852" stroke-width="2"/>
<text x="120" y="1308" font-size="25" fill="#A9B6C9" font-weight="400" text-anchor="start" class="">Official task runtime · startup excluded where the frozen protocol specifies</text>
<text x="2280" y="1308" font-size="25" fill="#A9B6C9" font-weight="600" text-anchor="end" class="">SocratBench Code v0.2</text>
</svg>
